<?xml version="1.0" encoding="UTF-8"?>
<svg width="68px" height="47px" viewBox="0 0 68 47" version="1.1" xmlns="http://www.w3.org/2000/svg" xmlns:xlink="http://www.w3.org/1999/xlink">
    <!-- Generator: Sketch 59.1 (86144) - https://sketch.com -->
    <title>Salida</title>
    <desc>Created with Sketch.</desc>
    <g id="Salida" stroke="none" stroke-width="1" fill="none" fill-rule="evenodd">
        <g id="icon">
            <path d="M23.9120879,0 C10.721172,0 0,10.5363957 0,23.5000159 C0,36.4635598 10.7211785,47 23.9120879,47 C37.1029973,47 47.8241758,36.4635598 47.8241758,23.5000159 C47.8241758,10.5363957 37.1029973,0 23.9120879,0 Z M23.9120879,2.54053882 C35.705898,2.54053882 45.2390852,11.9094172 45.2390852,23.5000159 C45.2390852,35.0905891 35.705898,44.4594612 23.9120879,44.4594612 C12.1182778,44.4594612 2.58509059,35.0905891 2.58509059,23.5000159 C2.58509059,11.9094172 12.1182713,2.54053882 23.9120879,2.54053882 Z" id="Shape" fill="#939393" fill-rule="nonzero"></path>
            <ellipse id="Oval-3" fill="#CCD3D5" cx="45.5824176" cy="23.8790323" rx="5.97802198" ry="6.44354839"></ellipse>
            <path d="M67.628986,22.2154537 L57.0676247,11.0238403 C56.5745306,10.5154224 55.7756842,10.4565031 55.2008005,10.9724916 C54.6868481,11.4337741 54.6740426,12.3334296 55.1493148,12.8343428 L63.6272754,21.8040717 L29.7158158,21.8040717 C28.9866335,21.8040717 28.3956044,22.3935284 28.3956044,23.120705 C28.3956044,23.8478815 28.9866335,24.4374041 29.7158158,24.4374041 L63.6272754,24.4374041 L55.1493148,33.4071001 C54.6741087,33.9079474 54.707845,34.7854835 55.2008005,35.2688854 C55.7212876,35.7792124 56.5820554,35.7337886 57.0676247,35.2175367 L67.628986,24.026022 C68.1645954,23.4205024 68.080984,22.7328906 67.628986,22.2154537 Z" id="Shape" fill="#939393" fill-rule="nonzero"></path>
        </g>
    </g>
</svg>