<?xml version="1.0" encoding="UTF-8"?>
<svg width="66px" height="47px" viewBox="0 0 66 47" version="1.1" xmlns="http://www.w3.org/2000/svg" xmlns:xlink="http://www.w3.org/1999/xlink">
    <!-- Generator: Sketch 59.1 (86144) - https://sketch.com -->
    <title>Entrada</title>
    <desc>Created with Sketch.</desc>
    <g id="Entrada" stroke="none" stroke-width="1" fill="none" fill-rule="evenodd">
        <g id="icon">
            <path d="M42,0 C28.7605881,0 18,10.5363957 18,23.5000159 C18,36.4635598 28.7605946,47 42,47 C55.2394054,47 66,36.4635598 66,23.5000159 C66,10.5363957 55.2394054,0 42,0 Z M42,2.54053882 C53.8371697,2.54053882 63.4054054,11.9094172 63.4054054,23.5000159 C63.4054054,35.0905891 53.8371697,44.4594612 42,44.4594612 C30.1628303,44.4594612 20.5945946,35.0905891 20.5945946,23.5000159 C20.5945946,11.9094172 30.1628238,2.54053882 42,2.54053882 Z" id="Shape" fill="#939393" fill-rule="nonzero"></path>
            <ellipse id="Oval-3" fill="#CCD3D5" cx="21" cy="23.8790323" rx="6" ry="6.44354839"></ellipse>
            <path d="M39.377622,22.2154537 L28.7774321,11.0238403 C28.2825252,10.5154224 27.4807418,10.4565031 26.9037446,10.9724916 C26.3879026,11.4337741 26.3750502,12.3334296 26.8520696,12.8343428 L35.3611992,21.8040717 L1.32506513,21.8040717 C0.593202,21.8040717 0,22.3935284 0,23.120705 C0,23.8478815 0.593202,24.4374041 1.32506513,24.4374041 L35.3611992,24.4374041 L26.8520696,33.4071001 C26.3751164,33.9079474 26.4089768,34.7854835 26.9037446,35.2688854 C27.4261453,35.7792124 28.2900777,35.7337886 28.7774321,35.2175367 L39.377622,24.026022 C39.9152005,23.4205024 39.8312817,22.7328906 39.377622,22.2154537 Z" id="Shape" fill="#939393" fill-rule="nonzero"></path>
        </g>
    </g>
</svg>